<svg width="60" height="60" viewBox="0 0 60 60" fill="none" xmlns="http://www.w3.org/2000/svg">
<path d="M30 60C13.4315 60 0 46.5685 0 30C0 13.4315 13.4315 0 30 0C46.5685 0 60 13.4315 60 30C59.9818 46.561 46.561 59.9818 30 60ZM30 6C16.7452 6 6 16.7452 6 30C6 43.2548 16.7452 54 30 54C43.2548 54 54 43.2548 54 30C53.9851 16.7513 43.2487 6.01488 30 6ZM42 45H18V39H42V45ZM19.5 30C17.0147 30 15 27.9853 15 25.5C15 23.0147 17.0147 21 19.5 21C21.9853 21 24 23.0147 24 25.5C24 27.9853 21.9853 30 19.5 30ZM40.479 29.958C38.0053 29.958 36 27.9527 36 25.479C36 23.0053 38.0053 21 40.479 21C42.9527 21 44.958 23.0053 44.958 25.479C44.9547 27.9513 42.9513 29.9547 40.479 29.958Z" fill="url(#paint0_linear_2_125)"/>
<defs>
<linearGradient id="paint0_linear_2_125" x1="60.625" y1="30" x2="1.61154e-08" y2="30" gradientUnits="userSpaceOnUse">
<stop stop-color="#D71489"/>
<stop offset="1" stop-color="#004788"/>
</linearGradient>
</defs>
</svg>
